<?xml version="1.0" standalone="no"?>
<!DOCTYPE svg PUBLIC "-//W3C//DTD SVG 20010904//EN"
 "http://www.w3.org/TR/2001/REC-SVG-20010904/DTD/svg10.dtd">
<svg version="1.0" xmlns="http://www.w3.org/2000/svg"
 width="700.000000pt" height="700.000000pt" viewBox="0 0 700.000000 700.000000"
 preserveAspectRatio="xMidYMid meet">
<metadata>
Created by potrace 1.14, written by Peter Selinger 2001-2017
</metadata>
<g transform="translate(0.000000,700.000000) scale(0.100000,-0.100000)"
fill="#000000" stroke="none">
<path d="M2384 6778 c-3 -4 -3 -9 0 -9 22 -5 32 -4 42 3 7 5 19 -1 30 -15 l19
-22 -24 20 c-22 18 -24 18 -18 2 5 -14 3 -16 -10 -9 -9 5 -24 7 -34 5 -11 -3
-19 -1 -19 4 0 5 -9 9 -20 10 -11 1 -20 -3 -20 -8 0 -6 4 -8 9 -4 5 3 12 1 15
-4 7 -11 -13 -9 -33 3 -11 7 -13 5 -7 -9 5 -15 4 -16 -9 -5 -8 7 -15 9 -15 4
0 -5 -7 0 -15 10 -18 24 -20 13 -3 -17 10 -20 10 -21 -5 -8 -10 7 -17 10 -17
6 0 -4 -6 -2 -14 4 -11 9 -19 9 -34 0 -17 -10 -24 -10 -39 1 -17 14 -17 14 0
-7 14 -16 15 -23 6 -29 -7 -4 -10 -3 -6 3 4 6 -2 13 -13 16 -15 4 -20 0 -20
-14 0 -10 -5 -19 -11 -19 -5 0 -8 4 -5 9 10 16 -22 20 -41 5 -17 -14 -16 -14
7 -4 24 10 24 10 6 -4 -12 -9 -24 -12 -30 -7 -14 11 -59 -6 -51 -19 4 -6 -1
-7 -11 -3 -12 4 -15 3 -10 -5 4 -7 2 -10 -7 -6 -7 2 -25 0 -39 -5 -17 -6 -29
-6 -36 1 -7 7 -14 4 -24 -11 -17 -28 -32 -27 -17 2 l11 22 -21 -23 c-12 -12
-19 -27 -15 -34 4 -7 3 -8 -4 -4 -7 4 -20 3 -29 -3 -13 -7 -23 -5 -37 7 -15
13 -17 13 -11 2 18 -29 15 -43 -5 -25 -14 12 -20 13 -26 4 -4 -8 -3 -10 4 -5
7 4 12 2 12 -3 0 -6 -7 -11 -16 -11 -9 0 -12 -5 -8 -12 4 -7 3 -8 -5 -4 -6 4
-9 12 -6 17 4 5 1 9 -4 9 -10 0 -16 -22 -12 -43 1 -5 -3 -6 -9 -2 -6 3 -8 10
-5 15 3 4 -1 10 -9 13 -9 4 -12 -2 -10 -19 1 -14 -2 -22 -8 -18 -6 4 -15 0
-20 -7 -8 -11 -9 -11 -5 3 4 11 0 15 -11 13 -9 -1 -16 -10 -16 -19 1 -10 -1
-15 -4 -12 -3 4 -17 -4 -30 -16 -14 -13 -22 -17 -18 -10 5 9 -1 12 -23 10 -16
-1 -28 -6 -25 -10 3 -4 12 -5 22 -2 15 5 15 5 -1 -6 -9 -6 -22 -8 -29 -4 -7 5
-8 3 -3 -6 6 -10 4 -12 -8 -7 -10 4 -17 2 -17 -4 0 -6 -6 -9 -13 -6 -8 3 -20
1 -28 -5 -11 -8 -10 -9 4 -4 9 3 17 1 17 -4 0 -10 -14 -14 -39 -11 -8 2 -10
-2 -5 -10 5 -9 2 -10 -11 -5 -16 6 -16 4 -4 -11 9 -10 9 -14 2 -10 -7 5 -23 1
-36 -8 -13 -8 -28 -12 -32 -8 -5 5 -4 1 3 -9 10 -12 10 -18 1 -24 -7 -4 -9 -3
-6 3 4 6 -4 11 -18 11 -24 0 -24 -2 -8 -14 17 -13 17 -14 -1 -7 -12 4 -17 3
-13 -4 3 -5 0 -10 -8 -11 -8 -1 -21 -3 -29 -4 -8 -1 -12 -7 -9 -14 2 -6 -1
-15 -8 -20 -8 -5 -10 -3 -5 7 4 8 -1 3 -12 -10 -13 -16 -24 -21 -33 -16 -12 8
-12 6 0 -8 8 -10 11 -20 7 -24 -3 -3 -6 -1 -6 6 0 7 -4 10 -9 7 -5 -4 -11 -3
-14 1 -2 5 -2 2 -1 -4 4 -15 -30 -35 -42 -25 -5 4 -2 -2 6 -12 10 -13 10 -17
2 -12 -7 4 -12 2 -12 -6 0 -9 -3 -9 -10 2 -8 13 -10 12 -10 -3 0 -10 -4 -15
-10 -12 -5 3 -10 1 -10 -5 0 -6 -3 -9 -8 -6 -4 2 -16 -3 -27 -11 -16 -13 -17
-15 -3 -10 10 4 18 2 18 -3 0 -6 -5 -10 -11 -10 -5 0 -8 -4 -5 -9 4 -5 -2 -7
-12 -4 -10 2 -25 -3 -33 -13 -9 -11 -9 -15 -2 -10 7 4 13 2 13 -3 0 -6 -8 -11
-19 -11 -10 0 -25 -8 -32 -17 -10 -11 -10 -14 -1 -9 6 4 12 2 12 -3 0 -10 -21
-16 -42 -12 -4 0 -5 -6 -2 -14 3 -7 1 -22 -6 -32 -10 -16 -10 -15 -6 7 5 23 4
23 -6 -2 -7 -16 -16 -28 -21 -28 -4 0 -6 -4 -2 -9 3 -5 0 -13 -6 -17 -8 -4 -9
-3 -5 4 4 7 2 12 -3 12 -6 0 -11 -5 -11 -11 0 -5 -6 -7 -12 -4 -7 4 -4 -1 6
-9 11 -9 15 -17 8 -17 -29 -3 -32 -4 -32 -12 1 -13 -25 -35 -34 -30 -4 3 -5
-5 -1 -18 7 -22 7 -23 -11 -9 -10 8 -16 10 -12 6 4 -5 0 -15 -10 -23 -9 -8
-11 -12 -4 -8 6 3 12 1 12 -4 0 -6 -7 -11 -16 -11 -14 0 -14 -3 -4 -15 11 -13
10 -14 -2 -10 -8 3 -21 -1 -28 -9 -7 -9 -16 -14 -20 -11 -5 3 -7 -3 -6 -12 2
-10 -4 -24 -11 -32 -8 -8 -12 -22 -10 -32 4 -15 2 -17 -13 -9 -15 8 -17 6 -12
-12 4 -16 2 -20 -10 -16 -14 6 -16 2 -20 -42 -1 -11 -8 -20 -15 -20 -20 0 -34
-35 -20 -50 10 -10 8 -12 -7 -6 -16 5 -17 4 -6 -9 11 -13 10 -14 -5 -9 -14 6
-16 4 -10 -6 6 -10 4 -12 -7 -8 -10 4 -15 0 -15 -10 0 -36 -3 -43 -15 -36 -10
6 -10 5 -1 -8 13 -15 8 -28 -9 -28 -5 0 -6 6 -2 13 4 7 3 9 -2 4 -12 -12 -12
-30 1 -39 6 -5 3 -8 -6 -8 -11 0 -15 -8 -14 -24 2 -14 -3 -33 -11 -43 -14 -17
-14 -16 -4 5 7 15 7 22 0 22 -5 0 -10 -7 -10 -16 0 -8 -3 -13 -7 -11 -5 3 -7
-15 -6 -39 1 -31 -3 -44 -13 -44 -7 0 -18 -9 -24 -20 -9 -16 -8 -22 5 -27 12
-4 13 -8 5 -13 -10 -6 -17 -25 -19 -54 -1 -5 -8 -3 -16 4 -14 12 -15 10 -11
-14 3 -19 1 -26 -7 -23 -7 3 -13 -3 -13 -14 0 -11 4 -19 8 -19 4 0 8 5 8 12 0
6 3 9 6 5 3 -3 1 -14 -5 -24 -6 -10 -11 -14 -11 -8 0 5 -7 -1 -16 -13 -8 -12
-13 -26 -9 -31 3 -5 1 -12 -5 -16 -15 -10 -12 -23 7 -28 15 -4 16 -5 2 -6 -21
-1 -33 -42 -16 -53 11 -7 10 -9 -12 -12 -5 0 -13 -5 -18 -10 -5 -5 -3 -6 4 -2
7 4 13 2 13 -4 0 -6 4 -8 10 -5 6 3 7 -1 4 -9 -3 -9 -10 -16 -16 -16 -5 0 -6
6 -2 13 4 7 3 9 -2 4 -5 -5 -9 -12 -9 -15 0 -4 -4 -14 -10 -22 -7 -12 -6 -13
6 -3 12 10 14 7 13 -20 -2 -40 -12 -66 -36 -93 -15 -16 -15 -21 -4 -21 8 0 13
4 10 9 -3 4 0 8 5 8 14 0 14 -17 0 -25 -6 -4 -8 -13 -5 -20 3 -8 -3 -15 -16
-17 -12 -2 -22 -11 -24 -21 -1 -9 2 -15 7 -11 5 3 7 10 4 15 -5 7 5 7 44 0 2
-1 -2 -7 -8 -15 -6 -7 -9 -20 -5 -29 3 -8 1 -18 -5 -21 -6 -4 -8 -14 -5 -24 5
-14 3 -14 -6 2 -10 14 -9 20 1 28 11 8 11 11 1 15 -10 4 -10 8 0 21 12 14 11
14 -10 1 -12 -8 -18 -15 -12 -17 5 -2 10 -8 10 -13 0 -6 -3 -8 -7 -6 -5 3 -9
-5 -9 -18 -1 -14 6 -27 20 -34 20 -10 20 -11 1 -6 -19 4 -21 0 -21 -40 -1 -29
3 -42 10 -38 7 4 7 2 0 -8 -16 -19 -16 -271 0 -281 8 -5 7 -8 -3 -8 -9 0 -8
-5 6 -17 10 -10 14 -15 9 -10 -6 4 -13 7 -16 7 -9 0 -6 -63 3 -77 5 -8 3 -13
-4 -13 -9 0 -9 -3 0 -14 8 -10 9 -16 1 -19 -6 -3 -5 -4 2 -3 7 2 12 10 10 20
-2 9 2 16 8 16 7 0 9 -13 4 -36 -4 -25 -3 -35 4 -30 6 4 8 -2 5 -16 -3 -16 -2
-19 5 -10 6 9 9 2 8 -22 -1 -19 -4 -32 -8 -29 -16 9 -8 -10 10 -24 9 -8 13
-12 7 -10 -6 3 -10 -16 -10 -49 0 -30 1 -54 2 -54 1 0 9 12 18 28 14 24 15 24
9 3 -5 -18 -3 -22 7 -17 8 4 5 0 -5 -8 -17 -14 -16 -20 4 -18 3 0 6 -8 6 -19
0 -10 -4 -19 -8 -19 -4 0 -8 5 -8 12 0 6 -3 8 -7 4 -5 -4 1 -14 12 -22 17 -13
18 -17 6 -37 l-14 -22 23 20 c13 11 20 14 16 8 -4 -8 -2 -13 6 -14 7 0 2 -5
-11 -10 l-24 -9 21 -23 c23 -25 29 -43 11 -31 -7 4 -6 -3 2 -17 7 -13 14 -35
15 -48 0 -13 9 -28 18 -33 11 -6 15 -16 11 -29 -4 -13 -2 -19 9 -19 9 0 16 -5
16 -11 0 -5 -4 -8 -9 -5 -5 4 -8 -2 -7 -11 2 -9 9 -19 17 -21 11 -3 11 -1 -1
8 -13 10 -13 11 0 7 9 -2 15 -14 14 -31 -1 -21 2 -25 17 -21 21 7 26 -9 7 -21
-7 -5 -8 -3 -3 6 5 9 4 11 -3 6 -16 -10 -15 -26 1 -26 18 0 39 -37 26 -46 -6
-4 -2 -12 11 -21 18 -12 19 -17 8 -31 -11 -13 -11 -14 1 -7 11 6 13 4 8 -8 -3
-9 -2 -19 4 -22 5 -4 6 -11 3 -17 -4 -7 -2 -8 5 -4 8 6 9 12 2 20 -8 9 -7 13
4 13 8 0 13 -3 10 -5 -3 -3 1 -12 8 -20 9 -13 9 -14 0 -8 -9 5 -12 0 -11 -18
1 -13 5 -23 9 -20 4 2 10 0 14 -6 4 -6 11 -7 17 -4 7 5 8 2 3 -6 -5 -8 -1 -19
11 -28 16 -12 16 -14 2 -9 -10 3 -20 2 -23 -4 -4 -5 -3 -9 2 -8 4 1 17 1 28
-1 l20 -1 -20 -9 c-17 -7 -17 -9 -2 -9 9 -1 17 -6 17 -12 0 -5 6 -7 13 -3 7 5
6 0 -3 -11 -9 -11 -10 -16 -2 -11 8 5 12 1 12 -13 0 -11 5 -23 10 -26 6 -4 7
-11 4 -17 -4 -7 0 -7 13 0 16 9 19 7 21 -16 2 -27 20 -45 36 -35 5 3 6 1 2 -6
-4 -6 -13 -8 -19 -5 -7 4 -8 3 -4 -2 5 -5 14 -9 20 -9 7 0 13 -6 13 -12 1 -7
2 -18 3 -24 0 -5 4 -8 9 -6 4 3 13 -2 21 -10 12 -13 11 -15 -10 -9 -18 4 -17
3 5 -8 20 -9 25 -15 15 -19 -10 -4 -9 -6 4 -6 9 -1 17 4 17 11 0 6 3 8 6 5 4
-4 1 -13 -6 -22 -10 -12 -10 -15 4 -15 9 0 16 -7 16 -15 0 -8 5 -15 11 -15 5
0 8 -4 4 -9 -6 -11 21 -41 37 -41 6 0 0 8 -13 18 -17 15 -19 21 -9 27 8 5 11
4 6 -3 -3 -6 3 -16 14 -22 18 -9 19 -14 9 -26 -7 -8 -8 -14 -3 -13 5 1 18 1
29 -1 l20 -1 -20 -9 c-17 -7 -17 -9 -2 -9 9 -1 17 -5 17 -10 0 -5 9 -11 20
-14 12 -3 20 -14 20 -25 0 -12 5 -24 12 -28 6 -4 8 -3 5 3 -3 5 0 10 7 10 8 0
12 -8 9 -21 -4 -17 -3 -18 6 -6 10 13 15 8 12 -12 0 -5 4 -8 10 -8 5 0 7 -6 3
-12 -6 -9 -3 -9 9 0 14 12 16 11 12 -8 -3 -18 -1 -20 18 -14 18 5 20 4 9 -7
-6 -7 -12 -18 -12 -24 0 -5 5 -3 10 5 9 13 10 13 10 0 0 -13 1 -13 10 0 8 13
10 12 10 -3 0 -12 4 -16 12 -11 8 5 7 0 -2 -11 -14 -17 -14 -18 10 -5 23 12
24 12 11 -3 -12 -15 -11 -17 5 -17 11 0 27 -14 36 -30 12 -22 22 -28 34 -23
13 5 16 3 11 -9 -4 -13 1 -16 29 -14 31 1 33 0 18 -11 -16 -12 -16 -13 5 -13
18 0 21 -4 16 -22 -4 -16 -3 -19 3 -9 6 9 12 10 16 3 4 -6 14 -8 23 -5 12 5
14 3 8 -7 -6 -10 -4 -12 10 -6 14 5 15 3 7 -6 -8 -10 -4 -14 14 -15 45 -4 51
-6 51 -20 0 -9 -4 -10 -14 -2 -9 8 -13 8 -13 0 0 -11 13 -15 39 -12 7 2 10 -3
6 -9 -3 -6 -3 -10 2 -9 21 4 43 -2 43 -12 0 -5 -4 -8 -8 -5 -5 3 -9 -1 -9 -9
0 -9 5 -11 11 -6 6 4 20 11 30 15 16 5 17 4 6 -9 -10 -13 -9 -15 9 -15 11 0
21 5 21 10 0 6 5 10 11 10 6 0 7 -5 2 -12 -12 -21 -12 -35 3 -35 7 0 11 4 8 8
-2 4 0 11 6 14 6 4 10 3 9 -2 -4 -20 2 -34 14 -32 6 1 21 1 31 0 20 -1 20 -1
0 -15 -10 -8 -16 -18 -11 -22 4 -4 7 -2 7 4 0 7 9 12 21 12 11 0 18 -4 15 -8
-8 -13 37 -12 54 1 8 6 6 2 -4 -11 -19 -22 -10 -31 12 -12 6 6 10 7 7 4 -9
-13 29 -39 53 -35 17 2 22 -1 17 -10 -6 -8 -4 -10 6 -3 20 12 40 14 33 3 -3
-5 -10 -6 -16 -3 -7 4 -8 2 -4 -4 5 -9 13 -9 29 0 21 11 21 10 7 -7 -9 -11
-10 -16 -2 -11 6 4 12 3 12 -3 0 -7 8 -7 24 -1 20 7 27 5 39 -14 13 -20 54
-35 41 -15 -2 4 1 11 7 15 7 4 9 3 6 -3 -4 -6 6 -19 21 -29 21 -14 24 -14 14
-2 -10 13 -10 18 -1 24 8 4 9 3 5 -4 -4 -7 -1 -12 8 -12 9 0 16 -8 17 -17 0
-15 2 -15 7 -3 4 8 13 16 21 18 11 2 12 0 3 -11 -10 -12 -8 -13 13 -9 14 2 22
8 19 13 -3 6 9 1 27 -10 25 -16 35 -17 42 -8 5 7 6 4 3 -9 -4 -14 -2 -21 8
-21 9 0 13 4 10 9 -3 4 0 8 5 8 6 0 11 -8 11 -17 0 -15 2 -16 9 -3 6 8 7 18 4
24 -3 5 -1 6 6 2 6 -4 9 -17 6 -29 -2 -12 -2 -16 1 -9 3 6 9 10 14 7 5 -3 16
3 26 12 14 14 17 15 12 3 -4 -10 3 -20 17 -26 18 -9 22 -8 19 1 -3 6 2 12 10
12 8 0 14 -3 12 -6 -2 -3 3 -13 12 -21 14 -13 15 -12 9 3 -3 9 -2 19 3 22 6 4
10 -1 10 -10 0 -9 5 -13 10 -10 6 3 10 0 11 -7 0 -7 4 -4 9 7 5 11 9 15 9 8 1
-7 8 -10 18 -6 11 4 14 3 9 -5 -4 -7 -2 -12 3 -12 6 0 11 5 11 12 0 9 3 9 12
0 19 -19 32 -14 17 6 -7 9 2 4 21 -13 19 -16 29 -23 23 -15 -18 20 -16 26 9
27 18 2 20 0 8 -7 -13 -8 -12 -10 3 -10 9 0 17 6 17 13 0 8 3 7 9 -3 6 -8 7
-18 5 -22 -3 -4 0 -8 6 -8 7 0 9 9 5 23 -5 19 -5 20 5 4 9 -14 15 -16 26 -6
11 9 14 8 15 -7 0 -18 1 -18 9 1 5 11 9 14 9 7 1 -7 6 -10 11 -7 6 4 7 11 4
17 -4 7 -2 8 4 4 6 -4 10 -12 8 -19 -1 -7 -1 -9 1 -4 3 4 10 4 16 0 7 -4 8 0
4 11 -6 15 -5 16 14 3 11 -8 28 -13 39 -10 10 3 21 0 24 -6 9 -14 36 -2 36 15
0 8 5 14 11 14 5 0 7 -6 3 -12 -5 -8 0 -7 11 2 10 8 16 10 12 4 -4 -7 2 -14
14 -17 15 -4 18 -2 10 7 -8 9 -7 13 4 13 8 0 15 -4 15 -9 0 -4 5 -8 11 -8 5 0
8 4 5 9 -3 5 1 11 9 15 8 3 19 -3 24 -12 9 -15 10 -15 11 -1 0 11 8 15 24 14
13 -2 29 1 37 6 9 5 18 1 27 -14 l13 -22 -4 22 c-6 25 8 40 19 22 5 -8 3 -9
-6 -4 -9 6 -11 4 -6 -4 5 -7 11 -10 14 -7 3 3 12 0 21 -7 14 -11 14 -10 2 6
-12 15 -11 17 2 17 8 0 18 6 21 13 3 6 3 1 0 -13 -4 -19 -3 -22 5 -10 6 8 11
11 11 5 0 -5 9 1 20 15 16 20 19 21 14 5 -6 -16 -5 -18 7 -8 16 16 33 17 23 1
-4 -7 -3 -8 4 -4 7 4 12 14 12 22 0 8 5 14 11 14 6 0 9 -7 6 -15 -4 -8 -1 -17
5 -21 7 -5 8 -3 4 5 -6 8 -2 11 10 9 11 -2 18 2 17 10 -2 6 5 12 14 12 9 0 25
8 35 17 13 12 18 13 16 4 -2 -7 3 -16 10 -18 8 -3 10 1 5 12 -5 15 -3 16 15 6
23 -12 44 -15 25 -3 -9 6 -7 11 7 20 17 10 18 9 13 -6 -6 -15 -5 -16 13 -2 10
8 22 20 26 25 5 6 8 5 8 -2 0 -7 5 -13 11 -13 5 0 7 5 3 12 -5 8 -2 9 9 5 12
-4 17 -1 17 11 0 10 3 13 8 7 13 -18 35 -17 28 1 -5 14 -4 15 9 4 18 -15 20 0
3 20 -11 12 -10 12 3 2 9 -6 19 -9 23 -5 9 10 37 13 31 4 -2 -4 2 -8 9 -8 8 0
12 6 9 14 -6 15 2 17 26 4 13 -7 18 -6 18 4 0 7 -6 11 -13 8 -6 -2 -15 0 -19
6 -3 6 0 9 8 5 8 -3 18 -1 21 5 5 7 15 7 33 0 24 -9 25 -8 12 7 -13 16 -12 16
11 4 23 -12 24 -12 11 4 -12 14 -12 16 4 10 12 -5 16 -4 11 4 -3 6 -1 14 5 18
7 4 9 3 5 -4 -3 -6 -2 -13 4 -17 5 -3 10 1 10 9 0 10 6 13 17 9 12 -5 14 -3 8
8 -8 12 -6 12 8 0 12 -9 17 -10 17 -2 0 7 5 9 12 5 7 -4 8 -3 4 5 -4 6 -12 8
-18 5 -7 -4 -8 -2 -4 5 4 6 18 9 32 7 22 -4 23 -3 12 17 -9 19 -9 20 3 11 16
-13 51 -15 43 -2 -3 5 -11 5 -17 2 -7 -4 -8 -3 -4 1 7 8 28 15 54 17 7 1 9 6
6 11 -4 6 1 8 11 4 14 -6 17 -3 12 9 -6 15 -4 15 11 3 14 -12 16 -12 8 0 -6
11 -4 13 8 8 11 -4 14 -2 10 8 -3 8 -10 12 -16 8 -6 -3 -7 -1 -3 6 6 9 11 9
22 0 11 -9 14 -9 14 1 0 10 3 10 14 1 12 -10 13 -9 9 7 -2 11 1 23 8 28 9 5
10 2 6 -10 -4 -10 -3 -15 3 -11 6 3 10 12 10 20 0 8 5 17 12 21 7 4 8 3 4 -4
-4 -7 -2 -12 3 -12 6 0 11 5 11 11 0 5 6 7 13 3 9 -6 9 -4 -1 8 -15 19 -3 31
18 18 15 -9 40 5 40 23 0 11 30 36 43 37 5 0 5 -5 1 -12 -4 -7 -3 -8 5 -4 6 4
9 11 6 16 -3 5 -1 11 4 14 5 4 12 -3 16 -14 6 -18 17 -24 37 -21 4 0 10 -8 13
-19 4 -12 11 -17 18 -13 7 4 5 -2 -3 -12 -8 -10 -10 -16 -3 -12 6 4 14 3 18
-3 4 -6 12 -8 18 -4 7 3 3 -2 -8 -11 -20 -17 -20 -17 3 -10 18 5 22 3 22 -17
0 -15 3 -19 8 -10 6 9 14 6 29 -12 12 -13 19 -27 16 -30 -4 -3 -1 -6 6 -6 7 0
9 -4 6 -10 -3 -5 2 -10 12 -10 22 -1 55 -24 46 -33 -3 -4 -1 -7 7 -7 9 0 10
-3 1 -14 -9 -11 -6 -13 14 -10 22 2 25 -1 19 -19 -6 -19 -5 -20 8 -10 19 17
31 4 15 -15 -10 -13 -9 -14 1 -8 7 4 15 1 18 -8 3 -9 12 -16 20 -16 8 0 14 -9
14 -21 0 -11 4 -18 9 -14 5 3 16 -1 24 -9 8 -8 18 -12 22 -8 5 4 6 0 2 -10 -4
-11 1 -18 19 -22 21 -6 23 -9 13 -27 -10 -19 -9 -20 11 -9 13 7 20 8 16 2 -3
-6 -2 -13 4 -17 6 -4 7 -12 3 -18 -4 -7 1 -6 11 2 9 8 16 10 15 5 -4 -23 3
-32 28 -39 21 -5 24 -8 12 -16 -11 -7 -8 -9 11 -9 18 0 21 -3 11 -9 -16 -10
-3 -20 22 -15 11 1 16 0 13 -3 -3 -4 0 -13 6 -22 8 -10 4 -9 -10 3 -12 11 -22
14 -22 8 0 -6 14 -16 30 -24 17 -7 30 -17 30 -21 0 -5 5 -5 12 -1 7 4 8 3 4
-5 -4 -6 0 -14 9 -17 10 -4 15 -14 12 -26 -5 -16 -3 -17 9 -7 12 10 17 9 27
-1 9 -9 9 -11 0 -6 -6 3 -14 2 -17 -3 -4 -5 5 -8 18 -7 20 3 23 -1 21 -20 -1
-15 2 -21 11 -17 13 5 38 -30 28 -40 -3 -3 5 -3 18 0 23 5 23 5 3 -10 -20 -16
-20 -16 3 -10 13 3 22 1 22 -6 0 -7 5 -9 12 -5 7 4 8 3 4 -5 -4 -6 0 -14 8
-17 9 -3 14 -10 11 -14 -3 -5 0 -12 6 -16 8 -5 9 -3 4 6 -5 9 -4 11 3 6 7 -4
12 -14 12 -23 0 -13 2 -13 17 -2 15 13 15 12 3 -11 -12 -23 -12 -24 3 -11 20
16 23 1 5 -18 -11 -10 -10 -11 4 -6 9 4 25 1 35 -5 17 -11 17 -11 -1 -6 -16 6
-17 4 -6 -9 7 -9 15 -13 18 -10 3 3 12 -5 20 -17 8 -14 11 -16 8 -5 -3 11 -2
15 4 12 6 -3 10 -14 10 -25 0 -10 7 -21 16 -24 15 -6 15 -4 3 11 -13 16 -12
17 4 4 9 -7 17 -20 17 -28 0 -8 5 -11 10 -8 8 5 14 -14 12 -36 -1 -4 13 -10
31 -13 25 -5 29 -9 17 -16 -13 -8 -13 -10 2 -10 12 0 16 -6 12 -17 -5 -15 -3
-15 11 2 17 20 17 20 12 -3 -4 -17 -2 -22 8 -18 8 3 17 -3 20 -15 4 -10 11
-19 16 -19 6 0 8 -4 5 -9 -7 -10 28 -44 36 -35 4 3 9 -4 13 -15 3 -11 16 -21
28 -23 13 -2 30 -19 44 -43 12 -22 23 -34 23 -26 0 11 4 9 14 -4 8 -11 12 -24
9 -29 -4 -5 -1 -6 5 -2 8 4 12 0 12 -11 0 -15 2 -16 10 -3 8 12 10 11 10 -6 0
-12 8 -28 17 -35 11 -10 14 -10 9 -1 -4 6 -2 12 3 12 6 0 11 -7 11 -16 0 -8 5
-12 10 -9 6 3 10 -1 10 -9 0 -14 11 -20 32 -17 4 0 5 -6 2 -13 -3 -8 3 -23 14
-34 11 -11 17 -24 14 -28 -4 -4 -1 -4 7 1 12 7 11 10 -4 22 -11 7 -14 13 -8
13 11 0 43 -32 43 -44 0 -4 -5 -4 -12 0 -7 4 -8 3 -4 -5 4 -6 12 -9 17 -6 5 4
9 2 9 -4 0 -5 16 -19 35 -31 28 -17 33 -25 25 -35 -9 -11 -7 -14 7 -14 27 1
51 -6 60 -16 4 -4 4 -6 -2 -3 -5 3 -16 -1 -24 -9 -11 -12 -10 -14 5 -11 12 2
18 -2 16 -11 -2 -8 3 -11 12 -8 8 3 16 -2 19 -13 3 -11 20 -26 38 -34 l34 -15
-30 4 -30 5 33 -12 c17 -6 32 -15 32 -20 0 -5 -5 -6 -12 -2 -7 4 -8 3 -4 -5 6
-9 11 -9 24 1 9 7 13 8 9 2 -8 -14 34 -72 48 -67 6 2 21 -14 34 -34 12 -21 20
-29 16 -19 -6 19 -5 19 15 1 21 -19 27 -30 10 -20 -5 3 -10 1 -10 -4 0 -6 9
-11 21 -11 14 0 19 -5 16 -14 -3 -8 2 -20 11 -28 11 -9 14 -10 8 0 -4 6 -2 12
3 12 6 0 11 -7 11 -15 0 -8 8 -15 18 -15 9 0 23 -10 31 -22 l14 -23 -23 20
-24 20 19 -26 c11 -14 28 -26 39 -25 11 1 21 -6 23 -14 4 -13 3 -13 -6 0 -6 8
-11 10 -11 4 0 -19 11 -23 37 -13 16 6 22 6 18 -1 -3 -6 1 -13 9 -16 21 -8 20
-22 -1 -26 -15 -3 -14 -5 5 -10 12 -3 20 -2 16 3 -3 5 6 9 20 9 14 0 26 -4 26
-10 0 -5 -8 -7 -17 -4 -17 5 -17 5 0 -6 9 -6 15 -14 13 -18 -2 -4 12 -7 32 -6
105 6 122 8 122 16 0 5 -4 6 -10 3 -5 -3 -10 -1 -10 6 0 9 -4 9 -15 -1 -8 -6
-19 -9 -25 -5 -5 3 -16 3 -22 -2 -18 -11 -39 -13 -33 -3 3 5 -4 7 -16 5 -16
-3 -18 -1 -10 9 6 7 7 17 3 22 -4 5 5 -2 20 -15 23 -20 28 -22 33 -8 4 9 16
14 31 12 13 -1 24 3 24 9 0 6 5 4 10 -4 8 -13 11 -12 25 5 9 11 14 14 10 8 -4
-8 0 -13 9 -13 10 0 13 6 10 15 -5 11 -2 13 10 9 9 -4 18 0 22 9 3 9 11 14 18
11 7 -3 19 3 27 13 13 17 13 17 -6 3 -19 -14 -19 -14 -6 3 8 10 20 16 27 13 8
-3 13 0 11 7 -1 7 4 11 11 9 8 -1 11 2 7 8 -3 6 -11 7 -17 4 -7 -5 -8 -2 -4 5
5 7 14 10 22 7 8 -3 13 -2 13 2 -4 25 3 42 19 42 13 0 14 2 4 9 -10 6 -9 11 4
22 10 8 15 9 12 4 -4 -6 -3 -17 2 -25 7 -12 9 -11 9 5 1 11 2 59 4 107 2 48 1
85 -3 83 -3 -2 -5 10 -3 28 4 32 4 32 -10 8 -13 -22 -14 -22 -22 -5 -4 11 -9
24 -10 29 -4 27 -28 75 -37 75 -5 0 -6 -4 -3 -10 3 -5 1 -10 -4 -10 -14 0 -14
6 -1 30 8 15 6 17 -10 13 -22 -6 -26 6 -10 25 7 9 7 9 -2 2 -16 -14 -31 -13
-22 2 5 8 2 9 -9 5 -10 -3 -17 -2 -17 2 0 5 6 12 12 14 8 4 7 6 -3 6 -18 1
-55 50 -51 65 2 5 -4 3 -13 -4 -8 -7 -18 -10 -22 -6 -3 3 -1 6 5 6 7 0 12 5
12 10 0 6 -3 9 -7 9 -19 -3 -33 2 -33 12 0 5 4 7 10 4 6 -4 7 1 3 11 -4 11 -8
13 -11 6 -2 -7 -8 -12 -14 -12 -6 0 -7 7 -4 16 3 8 2 12 -4 9 -5 -3 -18 -1
-27 5 -17 11 -17 11 0 6 10 -3 16 -2 12 3 -3 5 1 12 7 15 7 3 0 2 -16 -1 -20
-4 -27 -2 -22 5 8 13 -28 35 -39 24 -5 -4 -5 -1 -1 6 4 6 2 12 -3 12 -6 0 -11
10 -11 21 0 17 -3 19 -14 10 -12 -10 -14 -8 -9 11 4 18 3 20 -6 8 -9 -13 -11
-12 -11 3 0 11 -5 15 -11 11 -8 -4 -9 1 -4 17 7 24 7 24 -9 4 -13 -16 -15 -17
-10 -2 6 16 -5 22 -30 18 -5 -1 -3 5 4 14 7 8 10 18 6 22 -3 3 -6 1 -6 -5 0
-7 -5 -12 -11 -12 -5 0 -7 5 -4 10 3 6 0 10 -8 10 -13 0 -31 34 -28 53 1 5 -3
6 -9 2 -6 -4 -7 -12 -3 -19 4 -7 0 -3 -9 7 -10 11 -15 24 -11 31 4 6 0 5 -9
-2 -14 -12 -16 -10 -10 10 5 21 4 22 -13 8 -16 -14 -17 -13 -11 8 5 16 4 22
-6 20 -7 -2 -12 3 -10 11 3 12 0 12 -13 1 -13 -11 -15 -10 -10 3 4 8 1 18 -4
22 -6 3 -9 10 -6 15 3 4 -3 7 -13 6 -10 0 -16 6 -16 16 1 10 -2 15 -7 13 -11
-7 -51 33 -44 44 2 5 -3 8 -13 7 -10 0 -16 6 -16 16 1 10 -2 16 -6 13 -5 -3
-12 0 -15 6 -4 5 -14 8 -22 5 -12 -5 -14 -1 -11 18 5 22 3 24 -14 15 -18 -10
-19 -8 -13 13 7 20 6 21 -9 9 -14 -12 -16 -12 -11 1 4 10 -4 24 -20 36 -15 12
-24 25 -21 31 4 5 -3 7 -16 3 -18 -4 -20 -2 -15 17 3 13 3 20 0 17 -4 -3 -13
0 -22 7 -14 11 -14 10 -2 -5 8 -12 9 -18 2 -18 -6 0 -13 11 -17 25 -3 14 -10
22 -15 19 -9 -5 -13 10 -10 30 1 5 -5 3 -14 -4 -8 -7 -18 -10 -22 -6 -3 3 -2
6 4 6 5 0 10 7 10 15 0 11 -6 13 -20 9 -16 -5 -17 -3 -8 14 9 17 8 19 -9 15
-22 -6 -26 6 -10 25 7 9 7 9 -2 2 -17 -14 -28 -12 -28 6 0 11 -6 14 -22 9 -19
-6 -21 -5 -10 6 18 19 15 28 -9 24 -18 -4 -19 -2 -7 12 8 11 9 14 1 10 -7 -5
-18 3 -28 20 -10 17 -14 20 -11 8 6 -20 6 -20 -9 0 -9 11 -14 24 -11 31 2 6
-2 11 -9 11 -7 0 -11 -7 -8 -16 4 -14 4 -14 -6 -1 -6 8 -11 24 -11 35 0 17 -2
17 -10 5 -8 -13 -10 -12 -10 3 0 10 -4 15 -10 12 -5 -3 -10 3 -10 14 0 12 -3
20 -7 20 -23 -4 -43 2 -38 11 3 5 1 10 -5 10 -6 0 -8 4 -5 10 6 9 -8 15 -29
11 -5 -1 -6 5 -3 13 4 9 2 18 -4 21 -5 4 -6 11 -3 17 4 7 2 8 -4 4 -6 -4 -8
-14 -5 -23 6 -15 5 -16 -9 -3 -9 8 -14 18 -11 23 2 4 -1 7 -7 7 -6 0 -8 5 -4
12 5 8 2 9 -10 5 -9 -4 -14 -3 -11 2 3 5 0 13 -6 16 -5 4 -8 12 -6 19 3 8 -6
12 -29 11 -18 -1 -31 2 -28 7 3 4 10 6 15 3 5 -4 9 1 9 9 0 10 -7 13 -21 11
-18 -4 -19 -2 -7 12 9 12 9 15 0 9 -7 -4 -15 -1 -18 8 -3 9 -13 16 -21 16 -10
0 -14 7 -11 18 3 11 0 19 -8 19 -7 0 -11 -3 -9 -7 2 -4 -2 -7 -10 -7 -17 0
-19 8 -7 22 4 6 5 9 3 8 -2 -2 -10 2 -18 8 -10 9 -13 8 -13 -1 0 -8 -3 -10 -6
-7 -4 4 -1 13 6 22 11 13 10 14 -4 9 -9 -3 -16 -1 -16 6 0 6 -4 8 -10 5 -5 -3
-10 1 -10 9 0 9 -4 16 -10 16 -5 0 -10 5 -10 11 0 5 4 7 10 4 6 -3 7 1 3 10
-4 12 -8 13 -13 4 -13 -19 -43 -2 -37 21 3 11 0 23 -5 27 -7 3 -8 1 -4 -5 4
-7 3 -12 -3 -12 -5 0 -12 6 -14 13 -4 9 -8 8 -16 -3 -7 -9 -11 -11 -11 -3 0 7
8 17 18 22 15 9 15 10 -5 11 -13 0 -23 6 -23 14 0 8 -9 18 -21 21 -13 5 -18
12 -14 22 5 14 3 14 -12 2 -11 -9 -14 -10 -9 -1 4 7 2 12 -4 12 -6 0 -8 5 -4
12 5 8 2 9 -11 4 -15 -5 -16 -4 -5 9 11 13 10 14 -3 10 -10 -4 -17 1 -22 14
-3 12 -12 21 -20 21 -8 0 -17 9 -20 20 -3 11 -13 20 -21 20 -8 0 -14 5 -14 11
0 5 -6 7 -12 3 -8 -5 -7 0 2 11 9 11 10 16 3 11 -7 -4 -13 -3 -13 2 0 6 -7 13
-16 16 -15 6 -15 4 -3 -11 13 -16 12 -17 -3 -4 -10 7 -18 22 -18 33 0 10 -4
16 -10 13 -5 -3 -10 -1 -10 5 0 6 -4 8 -10 5 -9 -5 -15 15 -11 38 0 4 -10 7
-23 7 -17 0 -27 9 -36 30 -7 16 -16 28 -20 25 -9 -6 -33 55 -25 63 3 3 5 0 5
-7 0 -7 5 -9 11 -6 6 4 8 13 5 21 -3 9 0 11 11 7 12 -5 14 -3 8 7 -6 9 -4 12
7 8 8 -4 15 0 15 8 0 7 -5 10 -10 7 -6 -4 -7 -1 -3 6 5 7 15 10 25 6 12 -5 13
-4 4 6 -9 9 -8 18 7 39 11 15 16 31 12 35 -4 5 -1 5 6 1 9 -6 10 -11 3 -20 -8
-9 -7 -13 4 -13 8 0 13 3 10 5 -3 3 1 12 8 20 8 10 8 13 1 9 -7 -4 -14 -1 -17
7 -4 10 1 13 17 12 13 -2 23 3 23 10 0 7 -5 10 -10 7 -5 -3 -8 0 -5 8 3 8 10
14 16 14 5 0 14 4 19 9 4 5 3 6 -4 2 -6 -3 -14 -2 -18 4 -3 6 4 10 17 10 18 0
20 2 8 10 -11 7 -11 10 -2 10 7 0 10 5 7 10 -3 6 -1 10 5 10 6 0 8 5 4 12 -5
8 -2 9 10 5 9 -4 14 -3 11 2 -3 5 0 13 6 17 8 4 7 9 -2 15 -11 7 -11 9 2 9 9
0 19 9 22 20 3 11 1 18 -4 14 -5 -3 -6 2 -3 11 4 10 14 14 28 10 11 -2 15 -2
8 1 -6 3 -9 11 -6 16 5 7 2 8 -7 3 -11 -7 -12 -6 -2 7 7 8 9 19 5 24 -4 4 1 3
10 -4 14 -12 16 -10 11 9 -5 17 -3 20 8 14 11 -6 11 -5 3 4 -7 7 -9 21 -7 32
6 21 23 26 23 7 0 -9 3 -8 10 2 6 9 5 20 -3 29 -10 12 -9 14 8 8 18 -7 19 -6
3 6 -21 16 -14 28 10 19 14 -5 14 -3 -1 13 -18 17 -18 19 7 42 23 21 25 27 14
46 -11 21 -10 21 8 7 10 -8 16 -10 12 -6 -4 5 -3 15 3 22 7 8 6 14 -2 20 -8 5
-9 3 -4 -6 5 -9 4 -11 -4 -6 -15 10 -3 29 14 22 15 -6 8 34 -9 47 -7 6 -4 7 6
3 14 -4 17 0 14 23 -3 24 0 28 18 25 12 -3 15 -2 9 2 -7 3 -13 10 -13 15 0 6
6 7 13 3 6 -4 9 -4 5 1 -4 4 -2 15 5 23 10 13 9 14 -13 3 -25 -12 -25 -12 -5
6 11 10 20 24 21 31 2 28 4 33 12 28 4 -2 7 13 7 34 0 23 -4 36 -10 32 -5 -3
-2 7 9 22 10 16 14 26 9 23 -14 -9 -12 26 1 36 8 5 7 10 -3 16 -11 7 -11 9 0
13 12 5 12 9 0 29 l-14 24 24 -20 23 -20 -21 36 c-15 26 -17 36 -7 36 7 0 10
-5 7 -11 -3 -6 0 -6 7 1 8 7 10 19 5 30 -13 29 -14 43 -5 48 5 3 7 -4 5 -16
-4 -17 -2 -19 11 -9 9 8 11 17 5 24 -13 16 -19 106 -6 96 7 -6 11 -2 11 10 0
10 -3 17 -7 14 -4 -2 -9 3 -12 11 -4 9 -1 12 7 9 15 -6 17 49 2 63 -5 5 -6 2
-1 -6 5 -10 4 -12 -4 -7 -16 10 -2 29 16 21 12 -4 13 -3 5 8 -7 8 -8 18 -4 23
4 4 -1 2 -11 -5 -15 -12 -17 -12 -11 3 3 9 9 16 13 16 4 0 7 11 7 24 0 14 -4
22 -8 20 -4 -3 -8 1 -9 8 0 7 -2 23 -3 35 -1 12 1 20 5 17 4 -2 10 0 14 6 5 9
-6 14 -26 12 -3 -1 -6 6 -6 14 0 10 4 11 11 4 5 -5 15 -10 21 -10 5 0 4 4 -4
9 -12 8 -12 12 -2 24 7 9 8 18 3 21 -6 3 -9 21 -8 40 1 27 -2 32 -11 24 -9 -7
-13 -7 -13 1 0 7 -4 9 -10 6 -16 -10 -11 1 7 16 15 12 16 12 8 -1 -6 -12 -5
-13 5 -3 10 9 10 15 -2 27 -9 8 -17 14 -19 13 -3 -1 -1 2 4 8 5 6 11 4 17 -5
7 -12 9 -10 7 7 0 12 -4 20 -7 18 -3 -1 -11 3 -18 11 -7 8 -9 14 -5 14 4 0 8
11 8 25 0 15 -5 23 -12 21 -6 -3 -10 3 -8 12 1 9 -2 26 -8 37 l-10 20 23 -20
23 -20 -14 23 c-8 12 -17 22 -21 22 -5 0 -8 5 -8 10 0 6 3 9 8 8 4 -2 7 2 7 7
0 6 -9 9 -20 8 -11 -1 -14 1 -7 3 6 3 12 10 12 15 0 6 -3 8 -7 6 -5 -3 -8 5
-8 18 0 15 5 21 15 18 8 -3 2 4 -15 16 -16 11 -25 21 -19 21 7 0 15 7 18 16 4
10 2 13 -6 8 -8 -5 -9 -2 -5 9 4 10 1 17 -5 17 -9 0 -9 3 0 12 18 18 14 32 -5
17 -11 -10 -14 -10 -9 -1 4 6 3 12 -1 12 -5 0 -10 14 -11 32 -2 18 -9 39 -17
48 -9 10 -11 20 -5 30 13 20 12 30 -1 30 -5 0 -8 -4 -5 -9 3 -5 -2 -15 -12
-22 -15 -12 -16 -12 -5 1 7 9 8 21 3 29 -4 8 -6 20 -3 28 3 7 1 13 -4 13 -5 0
-17 16 -26 35 -19 41 -14 48 6 9 12 -22 15 -24 20 -10 4 9 3 15 -2 12 -5 -3
-19 17 -32 44 -13 27 -28 46 -34 42 -5 -3 -3 3 5 13 9 11 10 16 3 11 -9 -5
-13 1 -13 18 0 14 -5 26 -11 26 -5 0 -7 4 -4 10 4 6 -1 7 -12 3 -16 -6 -17 -5
-3 12 9 11 10 16 3 11 -8 -4 -13 -1 -13 9 0 10 -5 13 -12 9 -6 -4 -8 -3 -4 4
3 6 -2 16 -11 22 -15 9 -14 10 7 6 14 -3 20 -3 13 0 -7 3 -9 13 -6 22 3 10 1
13 -4 7 -16 -19 -31 -15 -25 8 5 20 4 21 -13 7 -17 -14 -18 -14 -6 8 11 22 6
28 -22 23 -4 0 -6 2 -6 6 1 5 0 10 -1 13 -5 15 -11 47 -12 65 0 11 -2 14 -5 8
-5 -14 -24 -18 -22 -5 4 21 -3 32 -18 33 -15 0 -15 2 2 9 19 8 19 9 -2 9 -20
1 -41 33 -35 54 1 4 -3 7 -9 7 -5 0 -7 6 -3 13 5 7 0 6 -11 -3 -17 -14 -18
-13 -13 8 5 17 2 22 -12 22 -11 0 -22 12 -29 30 -5 17 -14 30 -20 30 -5 0 -13
9 -16 20 -4 11 -11 17 -17 14 -7 -5 -9 2 -6 20 4 19 2 24 -6 17 -7 -6 -17 -6
-26 -1 -13 9 -13 10 0 10 13 0 13 1 0 10 -9 6 -17 5 -22 -3 -4 -7 -8 -8 -8 -2
0 6 6 17 13 24 10 11 8 13 -10 8 -20 -4 -21 -3 -12 15 7 13 7 18 1 14 -6 -3
-14 -1 -17 5 -4 5 -13 8 -21 5 -7 -3 -16 0 -20 6 -4 6 -3 8 4 4 6 -3 13 -2 17
4 3 5 -2 10 -12 10 -21 1 -39 15 -68 50 -12 16 -5 12 20 -10 21 -19 34 -28 27
-19 -6 9 -8 20 -4 24 4 5 2 5 -5 1 -6 -3 -18 3 -27 15 -10 14 -21 19 -32 15
-14 -5 -15 -4 -5 8 11 13 9 15 -9 11 -19 -4 -21 -1 -17 18 6 21 6 21 -8 3 -13
-18 -15 -18 -16 -3 -1 9 -2 22 -3 29 0 6 -11 13 -24 15 -27 4 -74 47 -64 58 4
4 -4 2 -18 -5 -23 -12 -24 -12 -11 4 12 14 12 16 -4 10 -13 -5 -16 -4 -11 4 4
7 1 12 -9 12 -9 0 -14 4 -11 9 3 5 -1 12 -10 15 -8 3 -12 2 -9 -3 3 -5 0 -13
-6 -17 -8 -4 -9 -3 -5 4 4 7 2 12 -4 12 -6 0 -8 5 -5 10 3 6 -1 10 -10 10 -9
0 -13 -4 -10 -10 3 -6 -1 -7 -10 -4 -13 5 -13 9 -3 18 7 6 11 10 9 9 -7 -5
-31 19 -26 26 2 4 -6 7 -18 6 -28 -2 -58 16 -49 30 3 5 -2 4 -11 -4 -10 -8
-17 -9 -17 -3 0 6 -9 14 -20 17 -11 3 -20 14 -20 23 0 15 -2 15 -10 2 -8 -13
-10 -13 -10 1 0 9 -10 24 -22 35 l-23 19 20 -24 20 -24 -31 16 c-17 9 -35 13
-40 9 -5 -4 -2 1 5 11 8 9 11 20 7 24 -3 3 -6 1 -6 -5 0 -20 -20 -13 -31 11
-9 20 -9 20 -4 -5 l5 -28 -30 30 c-27 26 -34 29 -53 18 -21 -11 -21 -10 -7 7
8 10 10 16 4 12 -7 -4 -15 0 -18 9 -6 15 -8 15 -25 0 -16 -14 -20 -15 -30 -2
-9 11 -9 16 0 22 8 4 9 3 5 -4 -10 -17 -1 -15 14 3 10 12 8 13 -12 9 -47 -12
-86 -4 -103 20 -10 13 -14 14 -18 4 -4 -8 -6 -7 -6 5 -1 9 -6 17 -12 17 -5 0
-8 -4 -4 -9 3 -5 0 -13 -6 -17 -8 -4 -9 -3 -5 5 11 17 -23 26 -46 12 -17 -11
-18 -10 -9 8 15 28 14 38 -2 16 -11 -14 -16 -15 -22 -5 -6 9 -4 11 6 5 12 -8
12 -6 0 8 -15 18 -26 23 -16 7 3 -5 -3 -10 -14 -10 -12 0 -21 5 -21 11 0 5 -5
7 -11 3 -6 -3 -15 0 -20 7 -7 12 -9 12 -9 0 0 -11 -4 -10 -16 5 -14 17 -15 17
-10 1 3 -10 2 -16 -3 -12 -5 3 -11 2 -14 -2 -2 -5 -2 -2 -1 5 2 6 -1 12 -5 12
-5 0 -12 -6 -14 -12 -4 -10 -6 -10 -6 0 -1 7 -5 11 -10 7 -5 -3 -13 0 -17 6
-4 7 -3 9 3 6 5 -3 10 0 10 8 0 12 -4 12 -20 -2 -11 -10 -17 -13 -14 -7 4 7 0
11 -11 10 -9 0 -16 5 -14 12 1 8 -2 11 -8 7 -6 -3 -7 -11 -4 -17 4 -6 1 -8 -7
-6 -8 3 -13 11 -11 18 2 9 -5 8 -23 -4 -23 -15 -30 -14 -26 8 1 5 -4 4 -11 -2
-8 -6 -19 -7 -27 -3 -7 5 -23 7 -37 5 -13 -1 -22 1 -19 6 3 5 16 7 30 5 14 -1
28 1 31 6 2 4 12 6 22 3 14 -5 14 -4 2 4 -10 8 -18 8 -27 0 -7 -6 -13 -6 -13
-1 0 5 -11 9 -24 9 -14 0 -23 -2 -21 -5 1 -4 -4 -12 -12 -20 -13 -12 -14 -11
-8 8 4 12 2 21 -4 21 -6 0 -11 -6 -11 -12 0 -8 -3 -9 -8 -3 -10 14 -112 19
-112 5 0 -5 -5 -10 -11 -10 -5 0 -7 5 -4 10 3 6 -3 10 -15 10 -14 0 -19 -4
-14 -12 6 -10 5 -10 -7 -1 -18 14 -367 15 -375 1z m111 -10 c5 4 5 1 1 -6 -6
-10 -11 -10 -22 -1 -8 6 -14 14 -14 16 0 3 6 0 13 -6 8 -6 18 -7 22 -3z m410
2 c-3 -5 -14 -10 -23 -9 -14 0 -13 2 3 9 27 11 27 11 20 0z m-675 -42 c0 -6
-3 -8 -7 -5 -3 4 -13 1 -22 -6 -14 -11 -14 -10 -2 6 15 20 31 22 31 5z m-189
-61 c-10 -9 -11 -8 -5 6 3 10 9 15 12 12 3 -3 0 -11 -7 -18z m-150 -40 c-10
-9 -11 -8 -5 6 3 10 9 15 12 12 3 -3 0 -11 -7 -18z m1740 -50 c-10 -9 -11 -8
-5 6 3 10 9 15 12 12 3 -3 0 -11 -7 -18z m609 -343 c0 -8 -19 -13 -24 -6 -3 5
1 9 9 9 8 0 15 -2 15 -3z m-3533 -482 c-10 -10 -14 -22 -10 -27 5 -4 2 -5 -5
-1 -11 6 -10 12 4 27 9 10 19 19 22 19 3 0 -2 -8 -11 -18z m-17 -46 c0 -2 -7
-7 -16 -10 -8 -3 -12 -2 -9 4 6 10 25 14 25 6z m-60 -80 c0 -2 -7 -9 -15 -16
-13 -11 -14 -10 -9 4 5 14 24 23 24 12z m-293 -620 c-3 -7 -1 -19 4 -25 5 -6
2 -5 -7 3 -9 8 -13 19 -10 25 10 16 19 14 13 -3z m4774 -469 c-13 -13 -26 -3
-16 12 3 6 11 8 17 5 6 -4 6 -10 -1 -17z m-4866 -77 c-3 -5 -12 -10 -18 -10
-7 0 -6 4 3 10 19 12 23 12 15 0z m0 -80 c3 -5 1 -10 -4 -10 -6 0 -11 5 -11
10 0 6 2 10 4 10 3 0 8 -4 11 -10z m0 -189 c3 -5 2 -12 -3 -15 -5 -3 -9 1 -9
9 0 17 3 19 12 6z m2 -46 c0 -8 -4 -12 -9 -9 -5 3 -6 10 -3 15 9 13 12 11 12
-6z m1 -86 c-10 -5 -18 -15 -18 -21 0 -7 5 -7 14 1 11 9 16 9 22 0 4 -7 3 -9
-4 -5 -5 3 -12 0 -15 -6 -3 -10 -7 -10 -17 -1 -11 10 -11 15 0 28 7 8 18 15
24 15 6 0 3 -5 -6 -11z m4822 -253 c0 -2 -7 -9 -15 -16 -13 -11 -14 -10 -9 4
5 14 24 23 24 12z m-4735 -206 c3 -5 2 -10 -4 -10 -5 0 -13 5 -16 10 -3 6 -2
10 4 10 5 0 13 -4 16 -10z m4635 -100 c0 -5 -2 -10 -4 -10 -3 0 -8 5 -11 10
-3 6 -1 10 4 10 6 0 11 -4 11 -10z m-4590 -24 c-7 -7 -14 -6 -21 1 -9 9 -7 12
9 10 14 -1 18 -5 12 -11z m4280 -692 c0 -8 -19 -13 -24 -6 -3 5 1 9 9 9 8 0
15 -2 15 -3z m-3500 -424 c6 -11 8 -20 6 -20 -3 0 -10 9 -16 20 -6 11 -8 20
-6 20 3 0 10 -9 16 -20z m2963 -35 c-3 -9 -8 -14 -10 -11 -3 3 -2 9 2 15 9 16
15 13 8 -4z m-2838 -45 c3 -5 1 -10 -4 -10 -6 0 -11 5 -11 10 0 6 2 10 4 10 3
0 8 -4 11 -10z m629 -326 c3 -8 2 -12 -4 -9 -6 3 -10 10 -10 16 0 14 7 11 14
-7z m866 -116 c0 -14 -18 -17 -28 -5 -8 10 -6 13 9 13 10 0 19 -4 19 -8z
m3130 -293 c11 -13 10 -14 -4 -9 -9 3 -16 10 -16 15 0 13 6 11 20 -6z m140
-145 c0 -5 -2 -10 -4 -10 -3 0 -8 5 -11 10 -3 6 -1 10 4 10 6 0 11 -4 11 -10z
m-752 -95 c-3 -3 -9 2 -12 12 -6 14 -5 15 5 6 7 -7 10 -15 7 -18z m837 15 c3
-6 -1 -7 -9 -4 -18 7 -21 14 -7 14 6 0 13 -4 16 -10z m-710 -140 c-3 -5 -1
-10 4 -10 6 0 11 -5 11 -11 0 -8 -5 -8 -15 1 -13 11 -12 30 1 30 3 0 2 -4 -1
-10z m1170 -320 c3 -5 1 -10 -4 -10 -6 0 -11 5 -11 10 0 6 2 10 4 10 3 0 8 -4
11 -10z m-785 -44 c0 -3 -4 -8 -10 -11 -5 -3 -10 -1 -10 4 0 6 5 11 10 11 6 0
10 -2 10 -4z m155 -174 c-3 -3 -11 0 -18 7 -9 10 -8 11 6 5 10 -3 15 -9 12
-12z m95 -92 c6 -11 8 -20 6 -20 -3 0 -10 9 -16 20 -6 11 -8 20 -6 20 3 0 10
-9 16 -20z"/>
<path d="M3066 6753 c-6 -14 -5 -15 5 -6 7 7 10 15 7 18 -3 3 -9 -2 -12 -12z"/>
<path d="M3210 6729 c0 -5 5 -7 10 -4 6 3 10 8 10 11 0 2 -4 4 -10 4 -5 0 -10
-5 -10 -11z"/>
<path d="M1945 6670 c-3 -6 1 -7 9 -4 18 7 21 14 7 14 -6 0 -13 -4 -16 -10z"/>
<path d="M3520 6649 c0 -5 -6 -7 -12 -3 -7 4 -9 3 -5 -1 13 -15 36 -14 30 1
-6 17 -13 18 -13 3z"/>
<path d="M1787 6616 c-4 -10 -1 -13 9 -9 15 6 19 23 5 23 -5 0 -11 -7 -14 -14z"/>
<path d="M1561 6507 c-13 -21 -12 -21 5 -5 10 10 16 20 13 22 -3 3 -11 -5 -18
-17z"/>
<path d="M3885 6481 c-3 -6 3 -15 14 -21 14 -7 22 -7 26 0 4 6 3 10 -2 9 -20
-3 -34 2 -28 11 3 6 4 10 1 10 -3 0 -7 -4 -11 -9z"/>
<path d="M3950 6440 c0 -5 5 -10 11 -10 5 0 7 5 4 10 -3 6 -8 10 -11 10 -2 0
-4 -4 -4 -10z"/>
<path d="M4580 5881 c0 -6 4 -13 10 -16 6 -3 7 1 4 9 -7 18 -14 21 -14 7z"/>
<path d="M4751 5633 c6 -7 17 -13 23 -12 7 0 6 2 -2 6 -6 2 -10 8 -8 12 3 4
-1 8 -9 8 -11 0 -12 -4 -4 -14z"/>
<path d="M406 5253 c-6 -14 -5 -15 5 -6 7 7 10 15 7 18 -3 3 -9 -2 -12 -12z"/>
<path d="M4975 5160 c3 -5 8 -10 11 -10 2 0 4 5 4 10 0 6 -5 10 -11 10 -5 0
-7 -4 -4 -10z"/>
<path d="M365 5151 c-3 -5 -2 -12 3 -15 5 -3 9 1 9 9 0 17 -3 19 -12 6z"/>
<path d="M5050 4921 c0 -6 4 -12 8 -15 5 -3 9 1 9 9 0 8 -4 15 -9 15 -4 0 -8
-4 -8 -9z"/>
<path d="M259 4783 c0 -5 -2 -19 -5 -32 -4 -21 -2 -22 12 -10 11 9 12 15 5 17
-9 3 -9 7 0 18 8 10 8 14 0 14 -6 0 -11 -3 -12 -7z"/>
<path d="M5115 4451 c-3 -5 -2 -12 3 -15 5 -3 9 1 9 9 0 17 -3 19 -12 6z"/>
<path d="M5090 3920 c-9 -6 -10 -10 -3 -10 6 0 15 5 18 10 8 12 4 12 -15 0z"/>
<path d="M5025 3651 c-3 -5 -2 -12 3 -15 5 -3 9 1 9 9 0 17 -3 19 -12 6z"/>
<path d="M4955 3459 c-3 -4 2 -6 10 -5 21 3 28 13 10 13 -9 0 -18 -4 -20 -8z"/>
<path d="M432 3264 c10 -10 20 -15 24 -12 3 4 -5 12 -18 18 -22 12 -22 12 -6
-6z"/>
<path d="M3551 1994 c0 -11 3 -14 6 -6 3 7 2 16 -1 19 -3 4 -6 -2 -5 -13z"/>
<path d="M2068 1892 c-11 -15 -11 -16 3 -4 14 10 20 10 32 -3 9 -8 18 -11 21
-7 3 5 -5 14 -19 20 -19 9 -26 8 -37 -6z"/>
<path d="M2250 1846 c0 -2 7 -7 16 -10 8 -3 12 -2 9 4 -6 10 -25 14 -25 6z"/>
<path d="M2955 1840 c-3 -5 -1 -10 4 -10 6 0 11 5 11 10 0 6 -2 10 -4 10 -3 0
-8 -4 -11 -10z"/>
<path d="M5496 1087 c3 -10 9 -15 12 -12 3 3 0 11 -7 18 -10 9 -11 8 -5 -6z"/>
<path d="M6759 708 c-5 -17 -4 -50 3 -54 5 -3 7 8 6 25 -2 26 -6 38 -9 29z"/>
<path d="M6330 270 c0 -5 5 -10 11 -10 5 0 7 5 4 10 -3 6 -8 10 -11 10 -2 0
-4 -4 -4 -10z"/>
</g>
</svg>
